<mxfile host="app.diagrams.net" agent="Mozilla/5.0 (Windows NT 10.0; Win64; x64) AppleWebKit/537.36 (KHTML, like Gecko) Chrome/140.0.0.0 Safari/537.36" version="28.2.3">
  <diagram name="Page-1" id="0iZ9GIEaTKywBCM9NBcT">
    <mxGraphModel dx="1303" dy="659" grid="1" gridSize="10" guides="1" tooltips="1" connect="1" arrows="1" fold="1" page="1" pageScale="1" pageWidth="827" pageHeight="1169" math="0" shadow="0">
      <root>
        <mxCell id="0" />
        <mxCell id="1" parent="0" />
        <mxCell id="oZqGOtI-yshqUdoeSOrc-6" value="" style="edgeStyle=orthogonalEdgeStyle;rounded=0;orthogonalLoop=1;jettySize=auto;html=1;" edge="1" parent="1" source="oZqGOtI-yshqUdoeSOrc-2" target="oZqGOtI-yshqUdoeSOrc-3">
          <mxGeometry relative="1" as="geometry" />
        </mxCell>
        <mxCell id="oZqGOtI-yshqUdoeSOrc-2" value="Start" style="ellipse;whiteSpace=wrap;html=1;labelBackgroundColor=none;fillColor=light-dark(#FFFFFF,#A7E5FF);gradientColor=none;" vertex="1" parent="1">
          <mxGeometry x="135" y="100" width="130" height="50" as="geometry" />
        </mxCell>
        <mxCell id="oZqGOtI-yshqUdoeSOrc-7" value="" style="edgeStyle=orthogonalEdgeStyle;rounded=0;orthogonalLoop=1;jettySize=auto;html=1;" edge="1" parent="1" source="oZqGOtI-yshqUdoeSOrc-3" target="oZqGOtI-yshqUdoeSOrc-5">
          <mxGeometry relative="1" as="geometry" />
        </mxCell>
        <mxCell id="oZqGOtI-yshqUdoeSOrc-3" value="New user ?" style="rhombus;whiteSpace=wrap;html=1;fillColor=light-dark(#FFFFFF,#FF6C24);" vertex="1" parent="1">
          <mxGeometry x="140" y="180" width="120" height="70" as="geometry" />
        </mxCell>
        <mxCell id="oZqGOtI-yshqUdoeSOrc-4" value="Recognize Face" style="shape=parallelogram;perimeter=parallelogramPerimeter;whiteSpace=wrap;html=1;fixedSize=1;fillColor=#d80073;fontColor=#ffffff;strokeColor=#A50040;" vertex="1" parent="1">
          <mxGeometry x="130" y="280" width="130" height="50" as="geometry" />
        </mxCell>
        <mxCell id="oZqGOtI-yshqUdoeSOrc-14" value="" style="edgeStyle=orthogonalEdgeStyle;rounded=0;orthogonalLoop=1;jettySize=auto;html=1;" edge="1" parent="1" source="oZqGOtI-yshqUdoeSOrc-5" target="oZqGOtI-yshqUdoeSOrc-13">
          <mxGeometry relative="1" as="geometry" />
        </mxCell>
        <mxCell id="oZqGOtI-yshqUdoeSOrc-5" value="Face recognized" style="rhombus;whiteSpace=wrap;html=1;fillColor=#0050ef;fontColor=#ffffff;strokeColor=#001DBC;" vertex="1" parent="1">
          <mxGeometry x="140" y="360" width="110" height="50" as="geometry" />
        </mxCell>
        <mxCell id="oZqGOtI-yshqUdoeSOrc-9" value="" style="edgeStyle=orthogonalEdgeStyle;rounded=0;orthogonalLoop=1;jettySize=auto;html=1;" edge="1" parent="1" source="oZqGOtI-yshqUdoeSOrc-8" target="oZqGOtI-yshqUdoeSOrc-3">
          <mxGeometry relative="1" as="geometry" />
        </mxCell>
        <mxCell id="oZqGOtI-yshqUdoeSOrc-11" value="" style="edgeStyle=orthogonalEdgeStyle;rounded=0;orthogonalLoop=1;jettySize=auto;html=1;" edge="1" parent="1" source="oZqGOtI-yshqUdoeSOrc-8" target="oZqGOtI-yshqUdoeSOrc-10">
          <mxGeometry relative="1" as="geometry" />
        </mxCell>
        <mxCell id="oZqGOtI-yshqUdoeSOrc-8" value="Give your photograph" style="rounded=0;whiteSpace=wrap;html=1;fillColor=#0050ef;fontColor=#ffffff;strokeColor=#001DBC;" vertex="1" parent="1">
          <mxGeometry x="340" y="195" width="120" height="40" as="geometry" />
        </mxCell>
        <mxCell id="oZqGOtI-yshqUdoeSOrc-12" value="" style="edgeStyle=orthogonalEdgeStyle;rounded=0;orthogonalLoop=1;jettySize=auto;html=1;" edge="1" parent="1" source="oZqGOtI-yshqUdoeSOrc-10" target="oZqGOtI-yshqUdoeSOrc-4">
          <mxGeometry relative="1" as="geometry" />
        </mxCell>
        <mxCell id="oZqGOtI-yshqUdoeSOrc-10" value="Store the face data in folder on your name" style="rounded=0;whiteSpace=wrap;html=1;fillColor=light-dark(#FFFFFF,#A7D7FF);" vertex="1" parent="1">
          <mxGeometry x="335" y="280" width="130" height="50" as="geometry" />
        </mxCell>
        <mxCell id="oZqGOtI-yshqUdoeSOrc-16" value="" style="edgeStyle=orthogonalEdgeStyle;rounded=0;orthogonalLoop=1;jettySize=auto;html=1;" edge="1" parent="1" source="oZqGOtI-yshqUdoeSOrc-13" target="oZqGOtI-yshqUdoeSOrc-15">
          <mxGeometry relative="1" as="geometry" />
        </mxCell>
        <mxCell id="oZqGOtI-yshqUdoeSOrc-13" value="Store the CSV file with registration" style="shape=parallelogram;perimeter=parallelogramPerimeter;whiteSpace=wrap;html=1;fixedSize=1;fillColor=light-dark(#FFFFFF,#FF775B);" vertex="1" parent="1">
          <mxGeometry x="120" y="450" width="150" height="40" as="geometry" />
        </mxCell>
        <mxCell id="oZqGOtI-yshqUdoeSOrc-15" value="END" style="ellipse;whiteSpace=wrap;html=1;fillColor=#a20025;fontColor=#ffffff;strokeColor=#6F0000;" vertex="1" parent="1">
          <mxGeometry x="135" y="530" width="120" height="54" as="geometry" />
        </mxCell>
        <mxCell id="oZqGOtI-yshqUdoeSOrc-17" value="yes" style="text;html=1;align=center;verticalAlign=middle;resizable=0;points=[];autosize=1;strokeColor=none;fillColor=none;" vertex="1" parent="1">
          <mxGeometry x="280" y="188" width="40" height="30" as="geometry" />
        </mxCell>
        <mxCell id="oZqGOtI-yshqUdoeSOrc-18" value="No" style="text;html=1;align=center;verticalAlign=middle;resizable=0;points=[];autosize=1;strokeColor=none;fillColor=none;" vertex="1" parent="1">
          <mxGeometry x="160" y="248" width="40" height="30" as="geometry" />
        </mxCell>
        <mxCell id="oZqGOtI-yshqUdoeSOrc-19" value="Yes" style="text;html=1;align=center;verticalAlign=middle;resizable=0;points=[];autosize=1;strokeColor=none;fillColor=none;" vertex="1" parent="1">
          <mxGeometry x="160" y="418" width="40" height="30" as="geometry" />
        </mxCell>
        <mxCell id="oZqGOtI-yshqUdoeSOrc-20" value="" style="endArrow=classic;html=1;rounded=0;exitX=1;exitY=0.5;exitDx=0;exitDy=0;" edge="1" parent="1" source="oZqGOtI-yshqUdoeSOrc-5">
          <mxGeometry width="50" height="50" relative="1" as="geometry">
            <mxPoint x="270" y="390" as="sourcePoint" />
            <mxPoint x="400" y="190" as="targetPoint" />
            <Array as="points">
              <mxPoint x="520" y="385" />
              <mxPoint x="520" y="160" />
              <mxPoint x="400" y="160" />
            </Array>
          </mxGeometry>
        </mxCell>
        <mxCell id="oZqGOtI-yshqUdoeSOrc-21" value="No" style="text;html=1;align=center;verticalAlign=middle;resizable=0;points=[];autosize=1;strokeColor=none;fillColor=none;" vertex="1" parent="1">
          <mxGeometry x="300" y="358" width="40" height="30" as="geometry" />
        </mxCell>
        <mxCell id="oZqGOtI-yshqUdoeSOrc-22" value="DevOps Visualization Diagram â€“ Face Recognition &lt;br&gt;Attendance System" style="text;html=1;align=center;verticalAlign=middle;resizable=0;points=[];autosize=1;strokeColor=none;fillColor=none;labelBackgroundColor=light-dark(#FFFFFF,#5DFFF5);fontStyle=1;fontSize=16;" vertex="1" parent="1">
          <mxGeometry x="80" y="38" width="380" height="50" as="geometry" />
        </mxCell>
      </root>
    </mxGraphModel>
  </diagram>
</mxfile>
